PathFileType	4	(X/Y/Z)	./resultDataOpenSim/trcMotMarkerGrf/sub06/qtm-04-06.trc
DataRate	CameraRate	NumFrames	NumMarkers	Units	OrigDataRate	OrigDataStartFrame	OrigNumFrames
250.000000	250.000000	9	24	m	250.000000	278	555
Frame#	Time	L.Toe.Tip			R.Toe.Tip			L.Ankle.Lat			R.Ankle.Lat			L.Ankle.Med			R.Ankle.Med			L.Heel			R.Heel			L.Knee.Lat			R.Knee.Lat			L.Knee.Med			R.Knee.Med			L.Thigh.Upper			R.Thigh.Upper			L.ASIS			R.ASIS			V.Sacral			L.Acromium			R.Acromium			C7			L.Elbow			R.Elbow			L.Wrist.Lat			R.Wrist.Lat
		X1	Y1	Z1	X2	Y2	Z2	X3	Y3	Z3	X4	Y4	Z4	X5	Y5	Z5	X6	Y6	Z6	X7	Y7	Z7	X8	Y8	Z8	X9	Y9	Z9	X10	Y10	Z10	X11	Y11	Z11	X12	Y12	Z12	X13	Y13	Z13	X14	Y14	Z14	X15	Y15	Z15	X16	Y16	Z16	X17	Y17	Z17	X18	Y18	Z18	X19	Y19	Z19	X20	Y20	Z20	X21	Y21	Z21	X22	Y22	Z22	X23	Y23	Z23	X24	Y24	Z24

278	1.108	0.034880892	-0.040049685	0.0019650436	0.80568828	0.11785868	0.13099106	-0.063341988	0.034765666	-0.028888224	0.67576055	0.081166816	0.15556671	-0.054419875	0.053154103	0.055801235	0.6817206	0.1122177	0.070205414	-0.13954639	0.039741088	0.018415454	0.6364194	0.036905558	0.095191981	0.12436072	0.35938094	-0.059038471	0.55529543	0.45296504	0.16887872	0.12368277	0.36146007	0.061807622	0.53346519	0.42552886	0.04564168	0.22597046	0.72537207	-0.12735751	0.32338308	0.73556078	0.21396097	0.31937026	0.76935438	-0.10635722	0.38598441	0.78618529	0.13077016	0.1761742	0.85033174	0.066021754	0.30759511	1.2559997	-0.14810912	0.3190247	1.2399238	0.2166137	0.24204165	1.2921407	0.035409638	0.30196238	0.93082203	-0.22588698	0.1567732	0.97459433	0.27539852	0.53351542	0.84330431	-0.18000678	0.18889668	0.75008055	0.35304456
279	1.112	0.03496711	-0.040042395	0.0019356928	0.8109934	0.11565038	0.12912997	-0.061932837	0.036079101	-0.029262089	0.68107024	0.079348884	0.15418093	-0.05271818	0.054318865	0.055338677	0.68675471	0.11017697	0.068690763	-0.1379427	0.042114799	0.018040768	0.6414917	0.034930583	0.094068101	0.12937183	0.35875755	-0.059430398	0.56273898	0.4520795	0.16780431	0.12918518	0.36052389	0.061692452	0.53998959	0.42526376	0.044405186	0.23189266	0.72437534	-0.12703196	0.33125412	0.73467046	0.21387946	0.32560548	0.76826543	-0.10648941	0.39349597	0.78513952	0.13044883	0.18348081	0.84935303	0.066618865	0.31440165	1.2549776	-0.14764717	0.32591963	1.2387833	0.21715773	0.24898037	1.2910704	0.035956197	0.30975882	0.9295925	-0.22522024	0.16391603	0.97339386	0.27569105	0.54124461	0.84236879	-0.17922682	0.19545672	0.7489339	0.35365242
280	1.116	0.035045861	-0.04004861	0.001902288	0.81573843	0.11313975	0.12724746	-0.06037715	0.037415849	-0.029679756	0.685786	0.077313983	0.1527357	-0.0509114	0.055515801	0.054834904	0.69130577	0.10795872	0.067142435	-0.13621854	0.044578864	0.017643582	0.6459444	0.032813414	0.092867199	0.13459704	0.35811056	-0.0598011	0.57015621	0.45111138	0.16679468	0.13479223	0.35959623	0.061544707	0.54645673	0.42502944	0.043200513	0.23788149	0.7234087	-0.1268191	0.33918535	0.7338993	0.213823	0.33192998	0.76720414	-0.1066337	0.40107645	0.78412922	0.13012647	0.19072041	0.84845598	0.06726981	0.32127888	1.2540225	-0.14712907	0.33286632	1.237699	0.21772155	0.25596555	1.2900301	0.036540327	0.31752877	0.9284506	-0.22452645	0.17113215	0.97223892	0.27597901	0.54891148	0.84138515	-0.17849579	0.20223353	0.74782635	0.35426661
281	1.12	0.035127608	-0.040058925	0.001866124	0.81994028	0.11037141	0.12536939	-0.058656035	0.038765937	-0.030159806	0.68995716	0.07505899	0.15122977	-0.049005489	0.056771185	0.054296889	0.69538716	0.10556001	0.065567021	-0.13436252	0.04715092	0.017244783	0.64972425	0.03066795	0.09165165	0.14002509	0.35743796	-0.060171744	0.57740776	0.45002317	0.16574997	0.14059789	0.358674	0.061286771	0.55283082	0.4247565	0.042041051	0.24396529	0.72244776	-0.12660619	0.34717527	0.73322518	0.21379539	0.33833921	0.76617284	-0.10679819	0.4087169	0.7831492	0.12979941	0.19788744	0.84764632	0.067998004	0.32822763	1.2531362	-0.14655255	0.3398601	1.2366717	0.21830281	0.26298763	1.289022	0.037164354	0.32526562	0.92740088	-0.2238056	0.17841945	0.97114813	0.27625061	0.55651556	0.84035842	-0.17780324	0.20921327	0.74675982	0.35488623
282	1.124	0.035230913	-0.040058842	0.0018287551	0.82363567	0.10733905	0.12346955	-0.056796766	0.040145326	-0.030719196	0.6936449	0.072604769	0.14967272	-0.047004469	0.058099322	0.053720427	0.69901603	0.10295301	0.063937058	-0.13235761	0.049842861	0.016860632	0.6527342	0.028698792	0.090517364	0.14564088	0.35673823	-0.06056302	0.58433919	0.44879896	0.1645139	0.14666541	0.35775097	0.060864097	0.55907905	0.42439591	0.040921726	0.25016497	0.72148482	-0.12629955	0.35520026	0.73263197	0.21378136	0.34483195	0.76516876	-0.10697557	0.41641349	0.78220017	0.12946722	0.20506653	0.84687775	0.068730677	0.33524461	1.2523157	-0.14591527	0.3468949	1.235704	0.21889974	0.27003899	1.2880444	0.037828009	0.33296022	0.92644501	-0.22305804	0.18577385	0.97013276	0.2765021	0.56405455	0.83929123	-0.17712621	0.21633611	0.74573683	0.35551058
283	1.128	0.035366543	-0.040043343	0.0017899735	0.82690804	0.10394657	0.12144303	-0.054839261	0.041586191	-0.0313759	0.69692928	0.070023914	0.14809334	-0.044889828	0.059490466	0.053097158	0.7022461	0.10011154	0.062193197	-0.13018478	0.052647385	0.016482383	0.65495906	0.027116958	0.089515221	0.15143732	0.35600975	-0.060978777	0.59086498	0.44743655	0.1629853	0.15299546	0.35683128	0.060259611	0.56519696	0.42391076	0.039827431	0.25648324	0.72052598	-0.12588703	0.36320405	0.73209108	0.21374636	0.35141785	0.76419101	-0.10715351	0.42415832	0.78128706	0.12913687	0.2123264	0.84611071	0.069393627	0.34231975	1.2515556	-0.14522002	0.35397473	1.2347962	0.21951221	0.27712103	1.2870883	0.038525399	0.34060417	0.92558591	-0.2222844	0.19318818	0.96918959	0.27673462	0.57152504	0.83818554	-0.17645284	0.22355859	0.74476008	0.35614058
284	1.132	0.035533066	-0.04001883	0.0017475819	0.82994658	0.099970736	0.11917556	-0.052818438	0.043132214	-0.0321274	0.69991422	0.067477829	0.14655112	-0.042613913	0.060921871	0.052420916	0.70522449	0.097070165	0.060293564	-0.1278249	0.055541075	0.016076117	0.65657725	0.026082541	0.088573982	0.15740995	0.35525405	-0.061422998	0.5970281	0.44592149	0.16124543	0.15951219	0.35590128	0.059544519	0.57120029	0.42326381	0.038754436	0.26292073	0.71957409	-0.12539734	0.37114876	0.73157101	0.21367813	0.35810772	0.76324484	-0.10732216	0.43191932	0.78041056	0.12881818	0.21969071	0.84535394	0.069943608	0.34944614	1.2508534	-0.14447415	0.36111215	1.2339457	0.22014066	0.28423941	1.2861467	0.039249132	0.3481923	0.92482937	-0.22148835	0.20065888	0.96830415	0.27695551	0.57892108	0.8370451	-0.175794	0.23092853	0.74383046	0.35677779
285	1.136	0.035727597	-0.039992997	0.0016999523	0.83311257	0.095095347	0.11668696	-0.050777215	0.04483348	-0.032939609	0.70273363	0.065236375	0.14513627	-0.040130885	0.062373177	0.051679081	0.70826278	0.093995344	0.058310538	-0.12526108	0.05850519	0.015610391	0.65791877	0.025741182	0.087604966	0.16356142	0.35447468	-0.061906487	0.60303752	0.44424507	0.15955045	0.1661043	0.35491724	0.058860032	0.57709089	0.42241312	0.037720355	0.26948793	0.71862995	-0.12485288	0.37904735	0.7310639	0.21361336	0.36490094	0.76233541	-0.10746533	0.43964019	0.77956836	0.12852193	0.22717259	0.84466366	0.070336778	0.35662538	1.2502113	-0.14368686	0.36831863	1.2331479	0.22078519	0.29139502	1.2852276	0.039994777	0.35572145	0.92417957	-0.22067683	0.20818741	0.96746292	0.27717496	0.58623585	0.83587651	-0.17516795	0.23854558	0.74294634	0.35742423
286	1.14	0.035954522	-0.039967765	0.0016472203	0.83685761	0.089155783	0.11425394	-0.04873914	0.046708691	-0.033777552	0.7055667	0.063609056	0.14395288	-0.037421419	0.063840437	0.050857641	0.71178208	0.091181244	0.056479675	-0.12247949	0.061544435	0.015075087	0.65929565	0.026186327	0.086711068	0.16990866	0.3536741	-0.062437866	0.60926687	0.44248567	0.15818866	0.17271879	0.35383688	0.058303455	0.58287522	0.42132517	0.036762285	0.27619843	0.71769873	-0.12426643	0.38692584	0.7305991	0.21361161	0.37179311	0.76146637	-0.10755991	0.44727006	0.77876881	0.12826507	0.23477089	0.8441143	0.070535738	0.36385981	1.2496351	-0.1428683	0.37559917	1.2323998	0.22144592	0.29858661	1.2843547	0.04076205	0.36318689	0.92363562	-0.21985697	0.21576732	0.96665954	0.27739869	0.59346474	0.83468614	-0.17458231	0.24646625	0.74210415	0.35808118
